<svg  viewBox="0 0 12 12" fill="none" xmlns="http://www.w3.org/2000/svg">
<path d="M5.74852 11.435C5.19776 11.4309 4.65089 11.3414 4.12701 11.1698C3.69303 11.0255 3.27846 10.8274 2.8928 10.58C2.14187 10.1029 1.51155 9.45543 1.05193 8.6892C0.7441 8.18278 0.520189 7.62904 0.389024 7.04981C0.154911 5.97319 0.2353 4.85112 0.620439 3.81972C0.751823 3.47676 0.917397 3.14817 1.11461 2.83901C1.39686 2.38737 1.74188 1.97897 2.1391 1.6263C2.63483 1.18775 3.20188 0.838955 3.81524 0.595301C4.21563 0.43683 4.63356 0.327881 5.0599 0.270831C5.31296 0.23696 5.56796 0.219888 5.82324 0.219727C5.92931 0.219727 6.03617 0.21973 6.14465 0.228653C7.08582 0.277991 7.99768 0.575883 8.78904 1.09255C9.23788 1.38259 9.64369 1.73545 9.99432 2.14059C10.3567 2.55983 10.6571 3.02976 10.8862 3.53581C11.0818 3.96814 11.2186 4.42519 11.2928 4.89452C11.367 5.37394 11.3837 5.86063 11.3426 6.34409C11.2911 6.95326 11.137 7.5491 10.887 8.10596C10.6791 8.5697 10.4113 9.00365 10.0907 9.39654C9.75931 9.79991 9.37395 10.1548 8.94572 10.4511C8.46448 10.7876 7.93271 11.0437 7.37082 11.2095C6.85317 11.3597 6.31683 11.434 5.77825 11.4302L5.74852 11.435ZM5.80154 1.05686C5.41957 1.05576 5.03896 1.10291 4.66858 1.1972C4.03749 1.36464 3.44729 1.66141 2.93471 2.06904C2.42213 2.47668 1.99814 2.98645 1.68912 3.56663C1.36946 4.16098 1.18139 4.81829 1.13791 5.49317C1.11478 5.84022 1.12771 6.18876 1.17647 6.5331C1.23463 6.94792 1.349 7.3527 1.51637 7.73607C1.72284 8.20542 2.00043 8.63945 2.33917 9.02259C2.73038 9.46302 3.19827 9.82732 3.71963 10.0974C4.22039 10.3587 4.76572 10.5216 5.32667 10.5776C5.48978 10.5947 5.65364 10.6034 5.81762 10.6036C6.68781 10.6042 7.53996 10.3531 8.27318 9.88C8.7095 9.60089 9.09877 9.2531 9.42623 8.84981C9.76351 8.43275 10.0294 7.96174 10.2129 7.45621C10.4013 6.93474 10.4952 6.38326 10.4901 5.82819C10.4923 5.54464 10.4692 5.26148 10.421 4.98213C10.3291 4.47232 10.1554 3.98105 9.90674 3.5277C9.56414 2.90066 9.08765 2.35841 8.51182 1.94023C8.16381 1.68538 7.78254 1.48037 7.37886 1.33104C7.00751 1.19392 6.61977 1.10718 6.22581 1.07308C6.08117 1.06254 5.93895 1.05686 5.80154 1.05686Z" fill="#111111"/>
<path d="M6.73063 7.41064C6.98796 7.23962 7.19038 6.99665 7.31318 6.71141C7.58529 6.02877 7.58529 5.26634 7.31318 4.5837C7.1909 4.29813 6.98836 4.05502 6.73063 3.88446C6.46563 3.71849 6.15853 3.63393 5.84676 3.64111H5.76641C5.45754 3.63104 5.15292 3.71583 4.89281 3.88427C4.6327 4.05272 4.42935 4.29689 4.30964 4.58451C4.0386 5.26735 4.0386 6.02937 4.30964 6.71222C4.43215 6.99764 4.63464 7.24068 4.89218 7.41145V8.27941H3.96493V7.59234L3.88458 7.49257C3.78685 7.36933 3.70127 7.23675 3.62906 7.09671C3.42053 6.64289 3.3125 6.14864 3.3125 5.64837C3.3125 5.14809 3.42053 4.65383 3.62906 4.20001C3.82791 3.80758 4.13558 3.48205 4.51454 3.26311C4.91362 3.04898 5.35866 2.93701 5.81061 2.93701C6.26255 2.93701 6.70759 3.04898 7.10668 3.26311C7.48368 3.4826 7.79042 3.80662 7.99054 4.19677C8.20165 4.64986 8.3111 5.1444 8.3111 5.64512C8.3111 6.14583 8.20165 6.64037 7.99054 7.09347C7.91693 7.23322 7.83057 7.36574 7.73261 7.48932L7.65226 7.5891V8.27616H6.73143L6.73063 7.41064Z" fill="#111111"/>
</svg>
